<?xml version="1.0" encoding="UTF-8"?>
<svg id="Layer_2" data-name="Layer 2" xmlns="http://www.w3.org/2000/svg" viewBox="0 0 800 800">
  <defs>
    <style>
      .cls-1 {
        fill: #fff;
      }
    </style>
  </defs>
  <g id="Layer_1-2" data-name="Layer 1">
    <path class="cls-1" d="M454.6,397.6h-31.8c2-8.6,7.2-16.4,17.8-16.4,8.2,0,14,7.6,14,16.4Zm345.4,2.4c0,220.9-179.1,400-400,400S0,620.9,0,400,179.1,0,400,0s400,179.1,400,400ZM207.2,326c0,9.93,8.07,18,18,18s18-8.07,18-18-8.07-18-18-18-18,8.07-18,18Zm50.6,114h-14v-84.2h-82.2v-5.4c0-10.6,10.6-10.8,16-10.8,6.2,0,9,.6,9,.6v-29.2s-5.6-.8-13.2-.8c-17.2,0-49,4.8-49,41.2v4.6h-15v27h15v57h-14v27h67.6v-27h-16.4v-57h45v57h-14v27h65.2v-27h0Zm113.8-57.2h12.4v-27h-59v27h10l-12.8,40c-2.4,6.6-3,14.6-3,14.6h-.8s-.6-8-3-14.6l-12.8-40h10v-27h-59v27h12.4l30.8,84h44l30.8-84Zm121.6,24c0-30.8-18.6-53.6-51.6-53.6-35.8,0-57.8,25.4-57.8,58,0,29.6,21.4,58.2,61,58.2,30,0,47.8-15.6,47.8-15.6l-13.6-25.8s-14.8,10.6-31.2,10.6c-11.8,0-23-6.2-25.8-20.4h70.4c-.2-.2,.8-7.8,.8-11.4h0Zm99.2-52.4s-2.2-.4-4.4-.4c-17-.2-31,12.2-35.6,27.4h-.4s.4-2.2,.4-5.6v-5.8c0-10.2-5.6-14.2-15.8-14.2h-35v27h10.4c3,0,4.8,1.8,4.8,4.8v52.4h-15v27h67.4v-27h-15v-16.2c0-20.2,10-33.4,30.6-33.4,4.6,0,7.6,.6,7.6,.6v-36.6h0Zm98.6,36.6v-36.6s-2.2-.4-4.4-.4c-16.8-.2-30.8,12.2-35.6,27.4h-.4s.4-2.2,.4-5.6v-5.8c0-10.2-5.6-14.2-15.8-14.2h-35v27h10.4c3,0,4.8,1.8,4.8,4.8v52.4h-15v27h67.4v-27h-15v-16.2c0-20.2,10-33.4,30.6-33.4,4.6,0,7.6,.6,7.6,.6Z"/>
  </g>
</svg>